<svg width="39" height="29" viewBox="0 0 39 29" fill="none" xmlns="http://www.w3.org/2000/svg">
<path d="M33.8515 9.568C33.8515 9.568 33.6475 9.448 33.2395 9.208C32.8315 8.968 32.2915 8.704 31.6195 8.416C30.9475 8.104 30.2155 7.828 29.4235 7.588C28.6315 7.348 27.8515 7.228 27.0835 7.228C26.4835 7.228 25.9915 7.324 25.6075 7.516C25.2235 7.708 25.0315 8.032 25.0315 8.488C25.0315 9.16 25.4515 9.64 26.2915 9.928C27.1555 10.192 28.3195 10.564 29.7835 11.044C31.3675 11.524 32.7355 12.076 33.8875 12.7C35.0395 13.324 35.9275 14.128 36.5515 15.112C37.1755 16.072 37.4875 17.356 37.4875 18.964C37.4875 20.5 37.2115 21.796 36.6595 22.852C36.1075 23.884 35.3635 24.712 34.4275 25.336C33.4915 25.96 32.4475 26.416 31.2955 26.704C30.1435 26.968 28.9675 27.1 27.7675 27.1C26.5435 27.1 25.2595 26.98 23.9155 26.74C22.5955 26.476 21.3115 26.128 20.0635 25.696C18.8155 25.24 17.6755 24.712 16.6435 24.112L19.6675 17.956C19.6675 17.956 19.9075 18.1 20.3875 18.388C20.8675 18.676 21.5035 19 22.2955 19.36C23.0875 19.72 23.9635 20.044 24.9235 20.332C25.9075 20.62 26.8915 20.764 27.8755 20.764C28.6435 20.764 29.1715 20.668 29.4595 20.476C29.7715 20.26 29.9275 19.984 29.9275 19.648C29.9275 19.144 29.6635 18.76 29.1355 18.496C28.6075 18.208 27.9115 17.944 27.0475 17.704C26.2075 17.44 25.2715 17.14 24.2395 16.804C21.9835 16.036 20.3395 15.124 19.3075 14.068C18.2755 12.988 17.7595 11.512 17.7595 9.64C17.7595 7.744 18.2035 6.16 19.0915 4.888C19.9795 3.616 21.1435 2.656 22.5835 2.008C24.0475 1.336 25.6195 1 27.2995 1C28.5475 1 29.7475 1.156 30.8995 1.468C32.0755 1.756 33.1675 2.116 34.1755 2.548C35.2075 2.98 36.1075 3.388 36.8755 3.772L33.8515 9.568Z" fill="#1E90FF" fill-opacity="0.5"/>
<path fill-rule="evenodd" clip-rule="evenodd" d="M34.2514 10.9634L33.3445 10.4299L33.3436 10.4294L33.3427 10.4289L33.3418 10.4283L33.3408 10.4277L33.3398 10.4272L33.3389 10.4266L33.3379 10.4261L33.3369 10.4255L33.3358 10.4248L33.3349 10.4243L33.334 10.4238L33.3331 10.4232L33.3321 10.4226L33.331 10.422L33.3299 10.4214L33.3276 10.42L33.3264 10.4193L33.3252 10.4186L33.3239 10.4178L33.323 10.4173L33.3221 10.4167L33.3212 10.4162L33.3202 10.4156L33.3192 10.4151L33.3183 10.4145L33.3173 10.4139L33.3162 10.4133L33.3152 10.4127L33.3142 10.4121L33.3131 10.4115L33.312 10.4108L33.3109 10.4102L33.3097 10.4095L33.3086 10.4088L33.3074 10.4081L33.3062 10.4074L33.305 10.4067L33.3038 10.406L33.3026 10.4053L33.3 10.4038L33.2987 10.403L33.2961 10.4015L33.2947 10.4007L33.2934 10.3999L33.292 10.399L33.2906 10.3982L33.2891 10.3974L33.2862 10.3957L33.2847 10.3948L33.2832 10.3939L33.2817 10.393L33.277 10.3902L33.2754 10.3893L33.2738 10.3884L33.2722 10.3874L33.2705 10.3864L33.2689 10.3854L33.2672 10.3844L33.2655 10.3834L33.2637 10.3824L33.2629 10.3819L33.262 10.3814L33.2611 10.3809L33.2602 10.3804L33.2593 10.3798L33.2584 10.3793L33.2575 10.3788L33.2566 10.3782L33.2557 10.3777L33.2548 10.3772L33.252 10.3755L33.2511 10.375L33.2492 10.3739L33.2483 10.3733L33.2473 10.3728L33.2464 10.3722L33.2415 10.3694L33.2386 10.3676L33.2376 10.367L33.2366 10.3665L33.2356 10.3659L33.2315 10.3635L33.2305 10.3629L33.2274 10.361L33.2263 10.3604L33.2242 10.3592L33.2221 10.3579L33.221 10.3573L33.2134 10.3528L33.2089 10.3502L33.2066 10.3488L33.2021 10.3462L33.1743 10.3298L33.173 10.3291L33.1495 10.3152L33.1413 10.3104L33.133 10.3055L33.1245 10.3005L33.123 10.2997L33.1216 10.2988L33.1114 10.2928L33.1099 10.2919L33.1084 10.2911L33.0994 10.2858L33.0809 10.2749L33.0519 10.2578L33.0503 10.2569L32.9802 10.2157L32.9784 10.2146L32.9287 10.1854L32.9168 10.1784L32.878 10.1555L32.7325 10.0699C32.3749 9.8596 31.8772 9.6144 31.2256 9.33514L31.2119 9.32928L31.1984 9.32301C30.5735 9.03286 29.8858 8.77299 29.1335 8.54502C28.4283 8.33132 27.7459 8.228 27.0835 8.228C26.5807 8.228 26.2559 8.30983 26.0547 8.41043C26.0471 8.41424 26.041 8.41761 26.0363 8.42042C26.0341 8.43351 26.0315 8.45542 26.0315 8.488C26.0315 8.59593 26.0577 8.64616 26.0991 8.6935C26.1565 8.75916 26.2951 8.87008 26.6012 8.97699C27.4706 9.24286 28.6325 9.6143 30.0845 10.0903C31.7125 10.5843 33.1421 11.159 34.3638 11.8207C35.6451 12.5148 36.667 13.4287 37.3931 14.5719C38.1549 15.7465 38.4875 17.24 38.4875 18.964C38.4875 20.6161 38.191 22.0809 37.5457 23.3153L37.5413 23.3237C36.9149 24.4948 36.0609 25.4489 34.9822 26.1681C33.9456 26.8591 32.795 27.3599 31.5381 27.6741L31.5285 27.6765L31.5189 27.6787C30.2925 27.9598 29.0415 28.1 27.7675 28.1C26.4783 28.1 25.1352 27.9736 23.7397 27.7244L23.7295 27.7226L23.7194 27.7206C22.3558 27.4479 21.028 27.0881 19.7364 26.641L19.7283 26.6382L19.7203 26.6353C18.4232 26.1613 17.2291 25.6092 16.1409 24.9765L15.3349 24.5079L19.2495 16.539L20.182 17.0985L19.6675 17.956L16.6435 24.112C17.6755 24.712 18.8155 25.24 20.0635 25.696C21.3115 26.128 22.5955 26.476 23.9155 26.74C25.2595 26.98 26.5435 27.1 27.7675 27.1C28.9675 27.1 30.1435 26.968 31.2955 26.704C32.4475 26.416 33.4915 25.96 34.4275 25.336C35.3635 24.712 36.1075 23.884 36.6595 22.852C37.2115 21.796 37.4875 20.5 37.4875 18.964C37.4875 17.356 37.1755 16.072 36.5515 15.112C35.9275 14.128 35.0395 13.324 33.8875 12.7C32.7355 12.076 31.3675 11.524 29.7835 11.044C28.3195 10.564 27.1555 10.192 26.2915 9.928C25.4515 9.64 25.0315 9.16 25.0315 8.488C25.0315 8.032 25.2235 7.708 25.6075 7.516C25.9915 7.324 26.4835 7.228 27.0835 7.228C27.8515 7.228 28.6315 7.348 29.4235 7.588C30.2155 7.828 30.9475 8.104 31.6195 8.416C32.1606 8.64789 32.6161 8.86423 32.986 9.065C33.0755 9.11358 33.16 9.16124 33.2395 9.208L33.8515 9.568L36.8755 3.772C36.5929 3.63067 36.2923 3.48609 35.9739 3.33826C35.4272 3.08442 34.8277 2.821 34.1755 2.548C33.1675 2.116 32.0755 1.756 30.8995 1.468C29.7475 1.156 28.5475 1 27.2995 1C25.6195 1 24.0475 1.336 22.5835 2.008C21.1435 2.656 19.9795 3.616 19.0915 4.888C18.2035 6.16 17.7595 7.744 17.7595 9.64C17.7595 11.512 18.2755 12.988 19.3075 14.068C20.3395 15.124 21.9835 16.036 24.2395 16.804C25.2715 17.14 26.2075 17.44 27.0475 17.704C27.9115 17.944 28.6075 18.208 29.1355 18.496C29.6635 18.76 29.9275 19.144 29.9275 19.648C29.9275 19.984 29.7715 20.26 29.4595 20.476C29.1715 20.668 28.6435 20.764 27.8755 20.764C26.8915 20.764 25.9075 20.62 24.9235 20.332C23.9635 20.044 23.0875 19.72 22.2955 19.36C21.5788 19.0342 20.9898 18.7379 20.5286 18.4711C20.4802 18.4431 20.4331 18.4154 20.3875 18.388L19.6675 17.956L20.182 17.0985L20.1829 17.099L20.1839 17.0996L20.1848 17.1002L20.1858 17.1008L20.1869 17.1014L20.1878 17.102L20.1889 17.1026L20.19 17.1033L20.1909 17.1039L20.1919 17.1044L20.1929 17.105L20.194 17.1057L20.1951 17.1064L20.1963 17.107L20.1975 17.1078L20.1987 17.1085L20.1996 17.1091L20.2005 17.1096L20.2014 17.1101L20.2023 17.1107L20.2033 17.1113L20.2043 17.1119L20.2063 17.1131L20.2073 17.1137L20.2095 17.115L20.2106 17.1157L20.2117 17.1163L20.214 17.1177L20.2152 17.1184L20.2165 17.1192L20.2177 17.1199L20.219 17.1207L20.2203 17.1215L20.2229 17.123L20.2256 17.1247L20.2284 17.1264L20.2299 17.1272L20.2313 17.1281L20.2328 17.129L20.2343 17.1299L20.2358 17.1308L20.239 17.1327L20.2406 17.1336L20.2422 17.1346L20.2455 17.1366L20.2489 17.1386L20.2523 17.1407L20.2559 17.1428L20.2586 17.1445L20.2623 17.1467L20.2661 17.149L20.2681 17.1501L20.269 17.1507L20.276 17.1549L20.277 17.1555L20.2801 17.1574L20.2812 17.158L20.2886 17.1625L20.2897 17.1631L20.2919 17.1644L20.3235 17.1834L20.3248 17.1842L20.326 17.1849L20.3273 17.1857L20.3363 17.1911L20.3415 17.1942L20.3663 17.2091L20.372 17.2125L20.3837 17.2195L20.3852 17.2204L20.3867 17.2213L20.4162 17.239L20.4292 17.2468L20.4342 17.2498L20.5243 17.3039L20.5262 17.305L20.6149 17.3582L20.8096 17.475L20.902 17.5305C21.3369 17.7914 21.9352 18.0978 22.7093 18.4496C23.4538 18.788 24.2857 19.0965 25.2076 19.3732C26.1031 19.635 26.9916 19.764 27.8755 19.764C28.2228 19.764 28.4828 19.7419 28.6686 19.7081C28.8259 19.6795 28.8924 19.6492 28.9048 19.6434C28.914 19.6365 28.9213 19.6306 28.9269 19.6256C28.9242 19.5761 28.9125 19.5587 28.9055 19.5485C28.8916 19.5284 28.8406 19.4666 28.6883 19.3904L28.6723 19.3824L28.6567 19.3739C28.2196 19.1355 27.6025 18.896 26.7799 18.6675L26.7637 18.663L26.7477 18.658C25.9038 18.3928 24.9645 18.0917 23.9299 17.7549L23.9172 17.7507C21.5938 16.9598 19.7814 15.9837 18.5923 14.7669L18.5845 14.7589C17.3325 13.4487 16.7595 11.7011 16.7595 9.64C16.7595 7.58539 17.2425 5.78968 18.2716 4.31558C19.2642 2.89376 20.5697 1.81833 22.1697 1.09763C23.7693 0.364002 25.4831 0 27.2995 0C28.6275 0 29.9117 0.165604 31.1491 0.499576C32.3671 0.79848 33.5067 1.17365 34.5656 1.62719C35.6108 2.06482 36.5307 2.48158 37.3227 2.87757L38.2327 3.33256L34.2514 10.9634Z" fill="white"/>
<path d="M22.744 20.224C22.744 21.76 22.324 23.008 21.484 23.968C20.668 24.928 19.564 25.636 18.172 26.092C16.78 26.548 15.244 26.776 13.564 26.776H1V1.216H15.832C17.032 1.216 18.064 1.54 18.928 2.188C19.816 2.812 20.488 3.628 20.944 4.636C21.424 5.644 21.664 6.688 21.664 7.76801C21.664 8.944 21.352 10.084 20.728 11.188C20.128 12.292 19.216 13.12 17.992 13.672C19.456 14.104 20.608 14.86 21.448 15.94C22.312 17.02 22.744 18.448 22.744 20.224ZM8.02 7.192V11.116H12.808C13.288 11.116 13.72 10.984 14.104 10.72C14.512 10.456 14.716 9.92801 14.716 9.13601C14.716 8.44 14.548 7.948 14.212 7.66C13.876 7.348 13.48 7.192 13.024 7.192H8.02ZM15.616 18.784C15.616 18.16 15.448 17.644 15.112 17.236C14.776 16.804 14.344 16.588 13.816 16.588H8.02V20.872H13.564C14.14 20.872 14.62 20.692 15.004 20.332C15.412 19.972 15.616 19.456 15.616 18.784Z" fill="#1E90FF"/>
<path fill-rule="evenodd" clip-rule="evenodd" d="M0 27.776V0.216003H15.832C17.2176 0.216003 18.4619 0.592791 19.5155 1.37865C20.5439 2.10458 21.325 3.05597 21.851 4.21484C22.39 5.34982 22.664 6.53734 22.664 7.76801C22.664 9.12724 22.302 10.4331 21.6026 11.6729C21.2176 12.3792 20.7243 12.9876 20.1299 13.4976C20.9475 13.9688 21.6523 14.5752 22.2332 15.3208C23.2721 16.6224 23.744 18.2891 23.744 20.224C23.744 21.9477 23.2687 23.444 22.2413 24.6211C21.2881 25.7403 20.0191 26.5392 18.4833 27.0423C16.9773 27.5357 15.3345 27.776 13.564 27.776H0ZM21.448 15.94C20.8607 15.1849 20.1209 14.5882 19.2286 14.1499C18.8447 13.9613 18.4325 13.802 17.992 13.672C18.4087 13.4841 18.7892 13.2642 19.1335 13.0123C19.8007 12.5243 20.3322 11.9162 20.728 11.188C21.352 10.084 21.664 8.944 21.664 7.76801C21.664 6.688 21.424 5.644 20.944 4.636C20.488 3.628 19.816 2.812 18.928 2.188C18.064 1.54 17.032 1.216 15.832 1.216H1V26.776H13.564C15.244 26.776 16.78 26.548 18.172 26.092C19.564 25.636 20.668 24.928 21.484 23.968C22.324 23.008 22.744 21.76 22.744 20.224C22.744 18.448 22.312 17.02 21.448 15.94ZM14.104 10.72C14.512 10.456 14.716 9.92801 14.716 9.13601C14.716 8.44 14.548 7.948 14.212 7.66C13.876 7.348 13.48 7.192 13.024 7.192H8.02V11.116H12.808C13.288 11.116 13.72 10.984 14.104 10.72ZM9.02 10.116H12.808C13.0922 10.116 13.3254 10.0417 13.5375 9.89596L13.549 9.88803L13.5607 9.88043C13.5649 9.87773 13.5711 9.87324 13.5805 9.86106C13.5908 9.84772 13.6095 9.81913 13.6302 9.7656C13.6739 9.65254 13.716 9.45432 13.716 9.13601C13.716 8.56584 13.5747 8.43079 13.5612 8.41926L13.5461 8.40632L13.5315 8.3928C13.3794 8.2515 13.226 8.192 13.024 8.192H9.02V10.116ZM14.3312 17.8609L14.3226 17.8499C14.168 17.6512 14.0225 17.588 13.816 17.588H9.02V19.872H13.564C13.912 19.872 14.1396 19.7716 14.3201 19.6025L14.3311 19.5921L14.3424 19.5822C14.486 19.4555 14.616 19.2421 14.616 18.784C14.616 18.3481 14.503 18.0695 14.3401 17.8717L14.3312 17.8609ZM8.02 20.872V16.588H13.816C14.344 16.588 14.776 16.804 15.112 17.236C15.448 17.644 15.616 18.16 15.616 18.784C15.616 19.456 15.412 19.972 15.004 20.332C14.62 20.692 14.14 20.872 13.564 20.872H8.02Z" fill="white"/>
</svg>
